<?xml version="1.0" encoding="utf-8"?>
<!-- Generator: Adobe Illustrator 26.5.0, SVG Export Plug-In . SVG Version: 6.00 Build 0)  -->
<svg version="1.1" id="Layer_1" xmlns="http://www.w3.org/2000/svg" xmlns:xlink="http://www.w3.org/1999/xlink" x="0px" y="0px"
	 viewBox="0 0 1000 489.5" style="enable-background:new 0 0 1000 489.5;" xml:space="preserve">
<style type="text/css">
	.st0{fill:#202020;}
</style>
<g>
	<path class="st0" d="M939.8,244.6c0,28.8-7.7,55.7-21.1,79c-13.9,24.2-34.1,44.3-58.2,58.2c-23.3,13.4-50.3,21.1-79.1,21.1
		c-3.8,0-239.3-0.4-239.3-0.4v-97.3l103-103.1v119.5h131c41.7,0,75.5-35.3,75.5-77.1c0-67.3-56.7-79.2-75.9-79.2H192.8
		c-0.8,0-1.7,0-2.5,0c-16.9,0.8-23.7,10.3-23.7,24.4c0,7.8,1.9,13.4,5.3,17.2c0,0,0,0,0,0c2.9,2.9,6.6,5,10.6,6
		c0.2,0,4.2,0.7,6.1,0.7h214.3c50.8,0.1,91.5,33.4,91.5,98.2c0,1.5,0,3-0.1,4.5c-0.5,15.4-3.5,28.3-8.4,39
		c-16.3,35.6-53.7,47.6-91.9,47.6H60.2l82.9-82.8h232.6c15.8-0.1,25.6-11,25.4-24.5c-0.1-13.2-10.3-23.9-26-23.9H162
		c-8.6,0-16.9-1.2-24.7-3.3c-31.3-8.6-55.9-33.1-64.1-64.1c-1.9-7.3-3-15-3-22.9c0-12.7,3-25.1,8.3-36.6c9.9-21.5,28-39.5,49.7-49.7
		c12.1-5.7,25.4-8.9,39-8.9h618.1c14.9,0.4,29.3,2.8,43,7c49.9,15.4,89.3,54.7,104.6,104.6C937.4,212.7,939.8,228.4,939.8,244.6z"/>
</g>
</svg>
